<mxfile host="app.diagrams.net" agent="Mozilla/5.0 (Windows NT 10.0; Win64; x64) AppleWebKit/537.36 (KHTML, like Gecko) Chrome/131.0.0.0 Safari/537.36" version="26.0.5">
  <diagram name="Page-1" id="D2MZgEZGOmMR4yaLPP_J">
    <mxGraphModel dx="2652" dy="3010" grid="1" gridSize="10" guides="1" tooltips="1" connect="1" arrows="1" fold="1" page="1" pageScale="1" pageWidth="850" pageHeight="1100" math="0" shadow="0">
      <root>
        <mxCell id="0" />
        <mxCell id="1" parent="0" />
        <mxCell id="MuCNSQt7CKrwtMEDj9Fx-43" value="" style="rounded=0;whiteSpace=wrap;html=1;movable=1;resizable=1;rotatable=1;deletable=1;editable=1;locked=0;connectable=1;" vertex="1" parent="1">
          <mxGeometry x="-191" y="-1380" width="218.75" height="340" as="geometry" />
        </mxCell>
        <mxCell id="MuCNSQt7CKrwtMEDj9Fx-31" value="" style="group" vertex="1" connectable="0" parent="1">
          <mxGeometry x="-728.75" y="-1570" width="217.5" height="542.5" as="geometry" />
        </mxCell>
        <mxCell id="MuCNSQt7CKrwtMEDj9Fx-26" value="" style="rounded=0;whiteSpace=wrap;html=1;movable=1;resizable=1;rotatable=1;deletable=1;editable=1;locked=0;connectable=1;" vertex="1" parent="MuCNSQt7CKrwtMEDj9Fx-31">
          <mxGeometry width="217.5" height="542.5" as="geometry" />
        </mxCell>
        <mxCell id="MuCNSQt7CKrwtMEDj9Fx-49" value="" style="edgeStyle=orthogonalEdgeStyle;rounded=0;orthogonalLoop=1;jettySize=auto;html=1;" edge="1" parent="MuCNSQt7CKrwtMEDj9Fx-31" source="MuCNSQt7CKrwtMEDj9Fx-20" target="MuCNSQt7CKrwtMEDj9Fx-21">
          <mxGeometry relative="1" as="geometry" />
        </mxCell>
        <mxCell id="MuCNSQt7CKrwtMEDj9Fx-20" value="Data Preprocessing &amp;amp; Data Cleaning" style="rounded=0;whiteSpace=wrap;html=1;" vertex="1" parent="MuCNSQt7CKrwtMEDj9Fx-31">
          <mxGeometry x="48.75" y="250" width="120" height="60" as="geometry" />
        </mxCell>
        <mxCell id="MuCNSQt7CKrwtMEDj9Fx-50" value="" style="edgeStyle=orthogonalEdgeStyle;rounded=0;orthogonalLoop=1;jettySize=auto;html=1;" edge="1" parent="MuCNSQt7CKrwtMEDj9Fx-31" source="MuCNSQt7CKrwtMEDj9Fx-21" target="MuCNSQt7CKrwtMEDj9Fx-22">
          <mxGeometry relative="1" as="geometry" />
        </mxCell>
        <mxCell id="MuCNSQt7CKrwtMEDj9Fx-21" value="Synonym Dictionary Creation" style="rounded=0;whiteSpace=wrap;html=1;" vertex="1" parent="MuCNSQt7CKrwtMEDj9Fx-31">
          <mxGeometry x="48.75" y="351" width="120" height="60" as="geometry" />
        </mxCell>
        <mxCell id="MuCNSQt7CKrwtMEDj9Fx-22" value="Create Elasticsearch Index" style="rounded=0;whiteSpace=wrap;html=1;" vertex="1" parent="MuCNSQt7CKrwtMEDj9Fx-31">
          <mxGeometry x="48.75" y="450" width="120" height="60" as="geometry" />
        </mxCell>
        <mxCell id="MuCNSQt7CKrwtMEDj9Fx-48" value="" style="edgeStyle=orthogonalEdgeStyle;rounded=0;orthogonalLoop=1;jettySize=auto;html=1;" edge="1" parent="MuCNSQt7CKrwtMEDj9Fx-31" source="MuCNSQt7CKrwtMEDj9Fx-23" target="MuCNSQt7CKrwtMEDj9Fx-20">
          <mxGeometry relative="1" as="geometry" />
        </mxCell>
        <mxCell id="MuCNSQt7CKrwtMEDj9Fx-23" value="Data Source (TGO)" style="rounded=0;whiteSpace=wrap;html=1;" vertex="1" parent="MuCNSQt7CKrwtMEDj9Fx-31">
          <mxGeometry x="48.75" y="152" width="120" height="60" as="geometry" />
        </mxCell>
        <mxCell id="MuCNSQt7CKrwtMEDj9Fx-47" value="" style="edgeStyle=orthogonalEdgeStyle;rounded=0;orthogonalLoop=1;jettySize=auto;html=1;" edge="1" parent="MuCNSQt7CKrwtMEDj9Fx-31" source="MuCNSQt7CKrwtMEDj9Fx-24" target="MuCNSQt7CKrwtMEDj9Fx-23">
          <mxGeometry relative="1" as="geometry" />
        </mxCell>
        <mxCell id="MuCNSQt7CKrwtMEDj9Fx-24" value="Web Scraping&lt;br&gt;(Data Extraction)" style="rounded=0;whiteSpace=wrap;html=1;" vertex="1" parent="MuCNSQt7CKrwtMEDj9Fx-31">
          <mxGeometry x="48.75" y="50" width="120" height="60" as="geometry" />
        </mxCell>
        <mxCell id="MuCNSQt7CKrwtMEDj9Fx-27" value="&lt;b&gt;Data Collection &amp;amp; Processing&lt;/b&gt;" style="text;html=1;align=center;verticalAlign=middle;whiteSpace=wrap;rounded=0;" vertex="1" parent="MuCNSQt7CKrwtMEDj9Fx-31">
          <mxGeometry x="23.75" y="10" width="170" height="30" as="geometry" />
        </mxCell>
        <mxCell id="MuCNSQt7CKrwtMEDj9Fx-46" value="" style="group" vertex="1" connectable="0" parent="1">
          <mxGeometry x="-440" y="-1510" width="218.75" height="240" as="geometry" />
        </mxCell>
        <mxCell id="MuCNSQt7CKrwtMEDj9Fx-32" value="" style="rounded=0;whiteSpace=wrap;html=1;" vertex="1" parent="MuCNSQt7CKrwtMEDj9Fx-46">
          <mxGeometry width="218.75" height="240" as="geometry" />
        </mxCell>
        <mxCell id="MuCNSQt7CKrwtMEDj9Fx-55" value="" style="edgeStyle=orthogonalEdgeStyle;rounded=0;orthogonalLoop=1;jettySize=auto;html=1;" edge="1" parent="MuCNSQt7CKrwtMEDj9Fx-46" source="MuCNSQt7CKrwtMEDj9Fx-28" target="MuCNSQt7CKrwtMEDj9Fx-29">
          <mxGeometry relative="1" as="geometry" />
        </mxCell>
        <mxCell id="MuCNSQt7CKrwtMEDj9Fx-28" value="FastAPI Backend" style="rounded=0;whiteSpace=wrap;html=1;" vertex="1" parent="MuCNSQt7CKrwtMEDj9Fx-46">
          <mxGeometry x="59.370000000000005" y="50" width="120" height="60" as="geometry" />
        </mxCell>
        <mxCell id="MuCNSQt7CKrwtMEDj9Fx-29" value="Elasticsearch Engine" style="rounded=0;whiteSpace=wrap;html=1;" vertex="1" parent="MuCNSQt7CKrwtMEDj9Fx-46">
          <mxGeometry x="19.370000000000005" y="150" width="120" height="60" as="geometry" />
        </mxCell>
        <mxCell id="MuCNSQt7CKrwtMEDj9Fx-41" value="Backend Search Engine" style="text;html=1;align=center;verticalAlign=middle;whiteSpace=wrap;rounded=0;fontStyle=1" vertex="1" parent="MuCNSQt7CKrwtMEDj9Fx-46">
          <mxGeometry x="44.370000000000005" y="10" width="150" height="30" as="geometry" />
        </mxCell>
        <mxCell id="MuCNSQt7CKrwtMEDj9Fx-57" value="" style="edgeStyle=orthogonalEdgeStyle;rounded=0;orthogonalLoop=1;jettySize=auto;html=1;" edge="1" parent="1" source="MuCNSQt7CKrwtMEDj9Fx-29" target="MuCNSQt7CKrwtMEDj9Fx-16">
          <mxGeometry relative="1" as="geometry" />
        </mxCell>
        <mxCell id="MuCNSQt7CKrwtMEDj9Fx-61" value="" style="endArrow=classic;html=1;rounded=0;exitX=0.75;exitY=0;exitDx=0;exitDy=0;entryX=1;entryY=0.5;entryDx=0;entryDy=0;" edge="1" parent="1" target="MuCNSQt7CKrwtMEDj9Fx-28">
          <mxGeometry width="50" height="50" relative="1" as="geometry">
            <mxPoint x="-26.63000000000011" y="-1130" as="sourcePoint" />
            <mxPoint x="-260.6300000000001" y="-1430" as="targetPoint" />
            <Array as="points">
              <mxPoint x="-27" y="-1430" />
            </Array>
          </mxGeometry>
        </mxCell>
        <mxCell id="MuCNSQt7CKrwtMEDj9Fx-62" value="" style="endArrow=classic;html=1;rounded=0;exitX=1;exitY=0.5;exitDx=0;exitDy=0;entryX=0;entryY=0.5;entryDx=0;entryDy=0;" edge="1" parent="1" source="MuCNSQt7CKrwtMEDj9Fx-22" target="MuCNSQt7CKrwtMEDj9Fx-28">
          <mxGeometry width="50" height="50" relative="1" as="geometry">
            <mxPoint x="-160" y="-1160" as="sourcePoint" />
            <mxPoint x="-420" y="-1090" as="targetPoint" />
            <Array as="points">
              <mxPoint x="-480" y="-1090" />
              <mxPoint x="-480" y="-1430" />
            </Array>
          </mxGeometry>
        </mxCell>
        <mxCell id="MuCNSQt7CKrwtMEDj9Fx-60" value="" style="edgeStyle=orthogonalEdgeStyle;rounded=0;orthogonalLoop=1;jettySize=auto;html=1;" edge="1" parent="1" source="MuCNSQt7CKrwtMEDj9Fx-5" target="MuCNSQt7CKrwtMEDj9Fx-19">
          <mxGeometry relative="1" as="geometry" />
        </mxCell>
        <mxCell id="MuCNSQt7CKrwtMEDj9Fx-5" value="React.js Frontend&amp;nbsp;&lt;br&gt;(User Interface &amp;amp; Display Results)" style="rounded=0;whiteSpace=wrap;html=1;" vertex="1" parent="1">
          <mxGeometry x="-167.63" y="-1230" width="120" height="60" as="geometry" />
        </mxCell>
        <mxCell id="MuCNSQt7CKrwtMEDj9Fx-42" value="" style="edgeStyle=orthogonalEdgeStyle;rounded=0;orthogonalLoop=1;jettySize=auto;html=1;" edge="1" parent="1" source="MuCNSQt7CKrwtMEDj9Fx-16" target="MuCNSQt7CKrwtMEDj9Fx-5">
          <mxGeometry relative="1" as="geometry" />
        </mxCell>
        <mxCell id="MuCNSQt7CKrwtMEDj9Fx-16" value="Search Results" style="shape=parallelogram;perimeter=parallelogramPerimeter;whiteSpace=wrap;html=1;fixedSize=1;" vertex="1" parent="1">
          <mxGeometry x="-167.63" y="-1330" width="120" height="60" as="geometry" />
        </mxCell>
        <mxCell id="MuCNSQt7CKrwtMEDj9Fx-19" value="User Query&lt;br&gt;(Thai/English)" style="shape=parallelogram;perimeter=parallelogramPerimeter;whiteSpace=wrap;html=1;fixedSize=1;" vertex="1" parent="1">
          <mxGeometry x="-116.63" y="-1130" width="120" height="60" as="geometry" />
        </mxCell>
        <mxCell id="MuCNSQt7CKrwtMEDj9Fx-44" value="&lt;b&gt;Frontend&lt;/b&gt;" style="text;html=1;align=center;verticalAlign=middle;whiteSpace=wrap;rounded=0;" vertex="1" parent="1">
          <mxGeometry x="-106.63" y="-1370" width="60" height="30" as="geometry" />
        </mxCell>
      </root>
    </mxGraphModel>
  </diagram>
</mxfile>
